<?xml version="1.0" encoding="UTF-8" standalone="no"?>
<!-- Created with Inkscape (http://www.inkscape.org/) -->

<svg
   xmlns:dc="http://purl.org/dc/elements/1.1/"
   xmlns:cc="http://creativecommons.org/ns#"
   xmlns:rdf="http://www.w3.org/1999/02/22-rdf-syntax-ns#"
   xmlns:svg="http://www.w3.org/2000/svg"
   xmlns="http://www.w3.org/2000/svg"
   xmlns:xlink="http://www.w3.org/1999/xlink"
   xmlns:sodipodi="http://sodipodi.sourceforge.net/DTD/sodipodi-0.dtd"
   xmlns:inkscape="http://www.inkscape.org/namespaces/inkscape"
   width="744.09448819"
   height="1052.3622047"
   id="svg3060"
   version="1.1"
   inkscape:version="0.48.0 r9654"
   sodipodi:docname="New document 2">
  <defs
     id="defs3062" />
  <sodipodi:namedview
     id="base"
     pagecolor="#ffffff"
     bordercolor="#666666"
     borderopacity="1.0"
     inkscape:pageopacity="0.0"
     inkscape:pageshadow="2"
     inkscape:zoom="1.16"
     inkscape:cx="298.42778"
     inkscape:cy="664.96929"
     inkscape:document-units="px"
     inkscape:current-layer="layer1"
     showgrid="false"
     inkscape:window-width="1179"
     inkscape:window-height="759"
     inkscape:window-x="3"
     inkscape:window-y="81"
     inkscape:window-maximized="0" />
  <metadata
     id="metadata3065">
    <rdf:RDF>
      <cc:Work
         rdf:about="">
        <dc:format>image/svg+xml</dc:format>
        <dc:type
           rdf:resource="http://purl.org/dc/dcmitype/StillImage" />
        <dc:title></dc:title>
      </cc:Work>
    </rdf:RDF>
  </metadata>
  <g
     inkscape:label="Layer 1"
     inkscape:groupmode="layer"
     id="layer1">
    <g
       id="g3151"
       transform="translate(-320.68966,-102.58621)">
      <path
         style="fill:#f4f4f4"
         d="m 409.99997,483.79074 0,-150 150,0 150,0 0,150 0,150 -150,0 -150,0 0,-150 z"
         id="path3155"
         inkscape:connector-curvature="0" />
      <path
         style="fill:#101010"
         d="m 630.11199,589.70989 c -18.84597,-2.44323 -36.9855,-18.73941 -42.63231,-38.29998 -1.97914,-6.85575 -2.22049,-21.13017 -0.46852,-27.70993 6.68045,-25.08934 32.98829,-42.59678 58.55916,-38.97018 13.02326,1.84704 21.08397,5.87526 30.40139,15.19268 10.77852,10.77852 15.41001,22.02274 15.39198,37.36826 -0.013,11.09279 -2.30517,19.55214 -7.45805,27.52466 -12.1916,18.86277 -31.47708,27.78765 -53.79365,24.89449 z m 23.88798,-11.77247 c 28.70249,-11.12841 37.17276,-47.94237 16.19162,-70.37291 -19.56877,-20.9206 -53.76375,-17.38694 -68.60122,7.08915 -3.91844,6.46393 -6.59575,15.73544 -6.57853,22.78142 0.0458,18.74466 13.86938,36.72689 32.17252,41.8513 7.26427,2.03381 19.70488,1.40799 26.81561,-1.34896 z m -183.94356,10.76286 c -6.71079,-1.31591 -17.92622,-7.13659 -23.732,-12.31664 -18.41438,-16.42974 -23.01464,-42.19208 -11.6023,-64.97515 3.64506,-7.27682 15.57071,-18.70843 23.33758,-22.37077 24.55941,-11.5806 52.76207,-3.73867 67.85856,18.8685 10.80896,16.18655 11.2362,40.22148 1.0017,56.35199 -12.19251,19.21651 -34.53547,28.82035 -56.86354,24.44207 z m 24.23753,-10.59454 c 7.39198,-2.32052 12.96226,-5.83532 18.45941,-11.64775 16.90489,-17.87443 16.09642,-44.2588 -1.88672,-61.57304 -9.04408,-8.70767 -23.48706,-13.20213 -35.78165,-11.13477 -26.26103,4.41585 -42.78636,30.382 -35.12088,55.18522 7.33701,23.74044 31.0573,36.47614 54.32984,29.17034 z m 61.09415,-27.29507 c -1.16154,-0.46931 -3.07404,-2.07647 -4.25,-3.57147 -2.0474,-2.60285 -2.13812,-3.72261 -2.13812,-26.39219 0,-17.4138 -0.33054,-24.09979 -1.25,-25.28415 -0.6875,-0.88558 -10.7,-6.8504 -22.25,-13.25516 -11.55,-6.40476 -22.05526,-12.6287 -23.34501,-13.83099 -5.12467,-4.7771 -6.62664,-12.34745 -3.7633,-18.96809 0.76543,-1.76983 12.12793,-13.87074 25.25,-26.8909 25.63073,-25.43167 26.41148,-25.97759 34.87969,-24.38895 5.64584,1.05917 9.76988,5.6683 21.54928,24.08404 l 11.08114,17.3241 18.89837,0.32692 c 17.89837,0.30961 19.01438,0.44303 21.09077,2.52135 2.87216,2.87485 2.87215,7.73628 -2e-5,10.61112 -2.09237,2.0943 -3.13811,2.20949 -22.91667,2.52428 -13.1803,0.20977 -22.06904,-0.0718 -24.41858,-0.77346 -3.14082,-0.938 -4.56417,-2.46502 -9.5,-10.19196 -3.19312,-4.99875 -6.77808,-10.27438 -7.96657,-11.72361 l -2.16091,-2.63497 -12.58909,12.44585 c -6.92401,6.84521 -12.5891,12.99508 -12.5891,13.66637 0,0.67128 6.03324,4.40475 13.4072,8.29659 7.69591,4.06176 14.5117,8.38869 16,10.15743 l 2.5928,3.08137 0,33.20077 c 0,36.34784 0.0508,36.01677 -6.01104,39.15149 -3.18513,1.64709 -6.37427,1.8179 -9.60084,0.51422 z m 22.1033,-145.82309 c -5.20218,-2.44353 -10.21631,-8.21346 -11.06393,-12.73164 -2.58235,-13.76512 5.52314,-24.69221 18.4395,-24.85846 19.56811,-0.25188 27.6149,24.54633 11.57848,35.68196 -5.42058,3.76403 -13.31165,4.55844 -18.95405,1.90814 z"
         id="path3153"
         inkscape:connector-curvature="0" />
    </g>
    <path
       sodipodi:type="arc"
       style="fill:none;stroke:#000000;stroke-width:0;stroke-miterlimit:4;stroke-opacity:1;stroke-dasharray:none"
       id="path3157"
       sodipodi:cx="245.25862"
       sodipodi:cy="452.79321"
       sodipodi:rx="141.81035"
       sodipodi:ry="141.81035"
       d="m 387.06897,452.79321 a 141.81035,141.81035 0 1 1 -283.6207,0 141.81035,141.81035 0 1 1 283.6207,0 z"
       transform="translate(14.734657,-62.931034)" />
    <text
       xml:space="preserve"
       style="font-size:40px;font-style:normal;font-weight:normal;line-height:125%;letter-spacing:0px;word-spacing:0px;fill:#000000;fill-opacity:1;stroke:none;font-family:tartarsauce_erc;-inkscape-font-specification:tartarsauce_erc"
       id="text3927"
       sodipodi:linespacing="125%"
       x="109.44102"
       y="248.00972"><tspan
   id="tspan3929">                                                                        WE PARTY NO-DROP STYLE</tspan></text>
    <text
       xml:space="preserve"
       style="font-size:40px;font-style:normal;font-weight:normal;line-height:125%;letter-spacing:0px;word-spacing:0px;fill:#000000;fill-opacity:1;stroke:none;font-family:tartarsauce_erc;-inkscape-font-specification:tartarsauce_erc"
       id="text3934"
       sodipodi:linespacing="125%"
       transform="translate(-20.687001,13.793103)"><textPath
         xlink:href="#path3157"
         id="textPath3943"><tspan
   id="tspan3936">                                                                           WE   PARTY </tspan></textPath></text>
    <text
       xml:space="preserve"
       style="font-size:40px;font-style:normal;font-weight:normal;text-align:center;line-height:125%;letter-spacing:0px;word-spacing:0px;text-anchor:middle;fill:#000000;fill-opacity:1;stroke:none;font-family:tartarsauce_erc;-inkscape-font-specification:tartarsauce_erc"
       x="238.62671"
       y="522.18982"
       id="text3938"
       sodipodi:linespacing="125%"><tspan
         sodipodi:role="line"
         id="tspan3940"
         x="242.41577"
         y="522.18982">NO DROP </tspan><tspan
         sodipodi:role="line"
         x="238.62671"
         y="572.18982"
         id="tspan3946">STYLE</tspan></text>
  </g>
</svg>
